# xmcd
#
# Track frame offsets:
#	150
#	15678
#	32740
#	47139
#	61303
#	74217
#	91049
#	110268
#	129418
#	144065
#	172192
#	190441
#
# Disc length: 2750 seconds
#
# Revision: 0
# Processed by: cddbd v1.5.2PL0 Copyright (c) Steve Scherf et al.
# Submitted via: audiograbber 1.83.01
#
DISCID=a70abc0c
DTITLE=Lee Quick - Do You Think?
DYEAR=2003
DGENRE=Country
TTITLE0=In This World
TTITLE1=You Walked out the Door
TTITLE2=Willow Tree Bend
TTITLE3=Bored to Hell
TTITLE4=If I Apologize
TTITLE5=Something To Say
TTITLE6=Tell Me
TTITLE7=Just Another Lost Soul
TTITLE8=Do You Think?
TTITLE9=Michael and George
TTITLE10=Sky Blues
TTITLE11=Folk U.
EXTD=
EXTT0=
EXTT1=
EXTT2=
EXTT3=
EXTT4=
EXTT5=
EXTT6=
EXTT7=
EXTT8=
EXTT9=
EXTT10=
EXTT11=
PLAYORDER=
